<svg xmlns="http://www.w3.org/2000/svg" xmlns:xlink="http://www.w3.org/1999/xlink" width="1080" zoomAndPan="magnify" viewBox="0 0 810 809.999993" height="1080" preserveAspectRatio="xMidYMid meet" version="1.0"><path fill="#ffffff" d="M 364.5 405 L 364.5 263.25 L 384.75 263.25 L 384.75 387.121094 L 420.046875 365.917969 C 420.832031 365.445312 421.667969 365.089844 422.550781 364.84375 C 423.433594 364.601562 424.332031 364.476562 425.25 364.476562 C 426.167969 364.476562 427.066406 364.601562 427.949219 364.84375 C 428.832031 365.089844 429.667969 365.445312 430.453125 365.917969 L 465.75 387.121094 L 465.75 263.25 L 486 263.25 L 486 405 C 486 405.894531 485.882812 406.777344 485.648438 407.640625 C 485.417969 408.503906 485.074219 409.324219 484.625 410.097656 C 484.171875 410.871094 483.628906 411.574219 482.992188 412.203125 C 482.355469 412.832031 481.644531 413.371094 480.867188 413.8125 C 480.085938 414.253906 479.265625 414.585938 478.398438 414.808594 C 477.53125 415.03125 476.648438 415.136719 475.753906 415.125 C 474.855469 415.117188 473.976562 414.988281 473.117188 414.742188 C 472.253906 414.5 471.4375 414.148438 470.671875 413.6875 L 425.25 386.429688 L 379.828125 413.707031 C 379.058594 414.167969 378.246094 414.519531 377.382812 414.765625 C 376.519531 415.007812 375.640625 415.136719 374.742188 415.148438 C 373.847656 415.15625 372.964844 415.050781 372.097656 414.828125 C 371.226562 414.601562 370.402344 414.269531 369.625 413.828125 C 368.84375 413.382812 368.136719 412.847656 367.5 412.214844 C 366.863281 411.585938 366.320312 410.882812 365.867188 410.105469 C 365.417969 409.332031 365.078125 408.511719 364.84375 407.644531 C 364.613281 406.777344 364.496094 405.898438 364.5 405 " fill-opacity="1" fill-rule="evenodd"/><path fill="#ffffff" d="M 303.75 243 L 506.25 243 C 507.578125 243 508.898438 243.066406 510.21875 243.195312 C 511.539062 243.324219 512.851562 243.519531 514.152344 243.777344 C 515.453125 244.035156 516.738281 244.359375 518.007812 244.742188 C 519.277344 245.128906 520.523438 245.574219 521.75 246.082031 C 522.972656 246.589844 524.171875 247.15625 525.339844 247.78125 C 526.511719 248.40625 527.648438 249.089844 528.75 249.824219 C 529.851562 250.5625 530.917969 251.351562 531.941406 252.191406 C 532.96875 253.035156 533.949219 253.925781 534.886719 254.863281 C 535.824219 255.800781 536.714844 256.78125 537.558594 257.808594 C 538.398438 258.832031 539.1875 259.898438 539.925781 261 C 540.660156 262.101562 541.34375 263.238281 541.96875 264.410156 C 542.59375 265.578125 543.160156 266.777344 543.667969 268 C 544.175781 269.226562 544.621094 270.472656 545.007812 271.742188 C 545.390625 273.011719 545.714844 274.296875 545.972656 275.597656 C 546.230469 276.898438 546.425781 278.210938 546.554688 279.53125 C 546.683594 280.851562 546.75 282.171875 546.75 283.5 L 546.75 526.5 C 546.75 527.828125 546.683594 529.148438 546.554688 530.46875 C 546.425781 531.789062 546.230469 533.101562 545.972656 534.402344 C 545.714844 535.703125 545.390625 536.988281 545.007812 538.257812 C 544.621094 539.527344 544.175781 540.773438 543.667969 542 C 543.160156 543.222656 542.59375 544.421875 541.96875 545.589844 C 541.34375 546.761719 540.660156 547.898438 539.925781 549 C 539.1875 550.101562 538.398438 551.167969 537.558594 552.191406 C 536.714844 553.21875 535.824219 554.199219 534.886719 555.136719 C 533.949219 556.074219 532.96875 556.964844 531.941406 557.808594 C 530.917969 558.648438 529.851562 559.4375 528.75 560.175781 C 527.648438 560.910156 526.511719 561.59375 525.339844 562.21875 C 524.171875 562.84375 522.972656 563.410156 521.75 563.917969 C 520.523438 564.425781 519.277344 564.871094 518.007812 565.257812 C 516.738281 565.640625 515.453125 565.964844 514.152344 566.222656 C 512.851562 566.480469 511.539062 566.675781 510.21875 566.804688 C 508.898438 566.933594 507.578125 567 506.25 567 L 303.75 567 C 302.421875 567 301.101562 566.933594 299.78125 566.804688 C 298.460938 566.675781 297.148438 566.480469 295.847656 566.222656 C 294.546875 565.964844 293.261719 565.640625 291.992188 565.257812 C 290.722656 564.871094 289.476562 564.425781 288.25 563.917969 C 287.027344 563.410156 285.828125 562.84375 284.660156 562.21875 C 283.488281 561.59375 282.351562 560.910156 281.25 560.175781 C 280.148438 559.4375 279.082031 558.648438 278.058594 557.808594 C 277.03125 556.964844 276.050781 556.074219 275.113281 555.136719 C 274.175781 554.199219 273.285156 553.21875 272.441406 552.191406 C 271.601562 551.167969 270.8125 550.101562 270.074219 549 C 269.339844 547.898438 268.65625 546.761719 268.03125 545.589844 C 267.40625 544.421875 266.839844 543.222656 266.332031 542 C 265.824219 540.773438 265.378906 539.527344 264.992188 538.257812 C 264.609375 536.988281 264.285156 535.703125 264.027344 534.402344 C 263.769531 533.101562 263.574219 531.789062 263.445312 530.46875 C 263.316406 529.148438 263.25 527.828125 263.25 526.5 L 263.25 506.25 L 283.5 506.25 L 283.5 526.5 C 283.5 527.164062 283.53125 527.824219 283.597656 528.484375 C 283.664062 529.144531 283.757812 529.800781 283.890625 530.449219 C 284.019531 531.101562 284.179688 531.742188 284.371094 532.378906 C 284.566406 533.011719 284.789062 533.636719 285.042969 534.25 C 285.296875 534.863281 285.578125 535.460938 285.890625 536.046875 C 286.203125 536.628906 286.542969 537.199219 286.914062 537.75 C 287.28125 538.300781 287.675781 538.832031 288.097656 539.347656 C 288.515625 539.859375 288.960938 540.351562 289.429688 540.820312 C 289.898438 541.289062 290.390625 541.734375 290.902344 542.152344 C 291.417969 542.574219 291.949219 542.96875 292.5 543.335938 C 293.050781 543.707031 293.621094 544.046875 294.203125 544.359375 C 294.789062 544.671875 295.386719 544.953125 296 545.207031 C 296.613281 545.460938 297.238281 545.683594 297.871094 545.878906 C 298.507812 546.070312 299.148438 546.230469 299.800781 546.359375 C 300.449219 546.492188 301.105469 546.585938 301.765625 546.652344 C 302.425781 546.71875 303.085938 546.75 303.75 546.75 L 506.25 546.75 C 506.914062 546.75 507.574219 546.71875 508.234375 546.652344 C 508.894531 546.585938 509.550781 546.492188 510.199219 546.359375 C 510.851562 546.230469 511.492188 546.070312 512.128906 545.878906 C 512.761719 545.683594 513.386719 545.460938 514 545.207031 C 514.613281 544.953125 515.210938 544.671875 515.796875 544.359375 C 516.378906 544.046875 516.949219 543.707031 517.5 543.335938 C 518.050781 542.96875 518.582031 542.574219 519.097656 542.152344 C 519.609375 541.734375 520.101562 541.289062 520.570312 540.820312 C 521.039062 540.351562 521.484375 539.859375 521.902344 539.347656 C 522.324219 538.832031 522.71875 538.300781 523.085938 537.75 C 523.457031 537.199219 523.796875 536.628906 524.109375 536.046875 C 524.421875 535.460938 524.703125 534.863281 524.957031 534.25 C 525.210938 533.636719 525.433594 533.011719 525.628906 532.378906 C 525.820312 531.742188 525.980469 531.101562 526.109375 530.449219 C 526.242188 529.800781 526.335938 529.144531 526.402344 528.484375 C 526.46875 527.824219 526.5 527.164062 526.5 526.5 L 526.5 283.5 C 526.5 282.835938 526.46875 282.175781 526.402344 281.515625 C 526.335938 280.855469 526.242188 280.199219 526.109375 279.550781 C 525.980469 278.898438 525.820312 278.257812 525.628906 277.621094 C 525.433594 276.988281 525.210938 276.363281 524.957031 275.75 C 524.703125 275.136719 524.421875 274.539062 524.109375 273.953125 C 523.796875 273.371094 523.457031 272.800781 523.085938 272.25 C 522.71875 271.699219 522.324219 271.167969 521.902344 270.652344 C 521.484375 270.140625 521.039062 269.648438 520.570312 269.179688 C 520.101562 268.710938 519.609375 268.265625 519.097656 267.847656 C 518.582031 267.425781 518.050781 267.03125 517.5 266.664062 C 516.949219 266.292969 516.378906 265.953125 515.796875 265.640625 C 515.210938 265.328125 514.613281 265.046875 514 264.792969 C 513.386719 264.539062 512.761719 264.316406 512.128906 264.121094 C 511.492188 263.929688 510.851562 263.769531 510.199219 263.640625 C 509.550781 263.507812 508.894531 263.414062 508.234375 263.347656 C 507.574219 263.28125 506.914062 263.25 506.25 263.25 L 303.75 263.25 C 303.085938 263.25 302.425781 263.28125 301.765625 263.347656 C 301.105469 263.414062 300.449219 263.507812 299.800781 263.640625 C 299.148438 263.769531 298.507812 263.929688 297.871094 264.121094 C 297.238281 264.316406 296.613281 264.539062 296 264.792969 C 295.386719 265.046875 294.789062 265.328125 294.203125 265.640625 C 293.621094 265.953125 293.050781 266.292969 292.5 266.664062 C 291.949219 267.03125 291.417969 267.425781 290.902344 267.847656 C 290.390625 268.265625 289.898438 268.710938 289.429688 269.179688 C 288.960938 269.648438 288.515625 270.140625 288.097656 270.652344 C 287.675781 271.167969 287.28125 271.699219 286.914062 272.25 C 286.542969 272.800781 286.203125 273.371094 285.890625 273.953125 C 285.578125 274.539062 285.296875 275.136719 285.042969 275.75 C 284.789062 276.363281 284.566406 276.988281 284.371094 277.621094 C 284.179688 278.257812 284.019531 278.898438 283.890625 279.550781 C 283.757812 280.199219 283.664062 280.855469 283.597656 281.515625 C 283.53125 282.175781 283.5 282.835938 283.5 283.5 L 283.5 303.75 L 263.25 303.75 L 263.25 283.5 C 263.25 282.171875 263.316406 280.851562 263.445312 279.53125 C 263.574219 278.210938 263.769531 276.898438 264.027344 275.597656 C 264.285156 274.296875 264.609375 273.011719 264.992188 271.742188 C 265.378906 270.472656 265.824219 269.226562 266.332031 268 C 266.839844 266.777344 267.40625 265.578125 268.03125 264.410156 C 268.65625 263.238281 269.339844 262.101562 270.074219 261 C 270.8125 259.898438 271.601562 258.832031 272.441406 257.808594 C 273.285156 256.78125 274.175781 255.800781 275.113281 254.863281 C 276.050781 253.925781 277.03125 253.035156 278.058594 252.191406 C 279.082031 251.351562 280.148438 250.5625 281.25 249.824219 C 282.351562 249.089844 283.488281 248.40625 284.660156 247.78125 C 285.828125 247.15625 287.027344 246.589844 288.25 246.082031 C 289.476562 245.574219 290.722656 245.128906 291.992188 244.742188 C 293.261719 244.359375 294.546875 244.035156 295.847656 243.777344 C 297.148438 243.519531 298.460938 243.324219 299.78125 243.195312 C 301.101562 243.066406 302.421875 243 303.75 243 " fill-opacity="1" fill-rule="nonzero"/><path fill="#ffffff" d="M 263.25 344.25 L 263.25 334.125 C 263.25 333.460938 263.316406 332.800781 263.445312 332.148438 C 263.574219 331.496094 263.765625 330.863281 264.019531 330.25 C 264.273438 329.636719 264.585938 329.050781 264.957031 328.5 C 265.324219 327.945312 265.746094 327.4375 266.214844 326.964844 C 266.6875 326.496094 267.195312 326.074219 267.75 325.707031 C 268.300781 325.335938 268.886719 325.023438 269.5 324.769531 C 270.113281 324.515625 270.746094 324.324219 271.398438 324.195312 C 272.050781 324.066406 272.710938 324 273.375 324 C 274.039062 324 274.699219 324.066406 275.351562 324.195312 C 276.003906 324.324219 276.636719 324.515625 277.25 324.769531 C 277.863281 325.023438 278.449219 325.335938 279 325.707031 C 279.554688 326.074219 280.0625 326.496094 280.535156 326.964844 C 281.003906 327.4375 281.425781 327.945312 281.792969 328.5 C 282.164062 329.050781 282.476562 329.636719 282.730469 330.25 C 282.984375 330.863281 283.175781 331.496094 283.304688 332.148438 C 283.433594 332.800781 283.5 333.460938 283.5 334.125 L 283.5 344.25 L 293.625 344.25 C 294.289062 344.25 294.949219 344.316406 295.601562 344.445312 C 296.253906 344.574219 296.886719 344.765625 297.5 345.019531 C 298.113281 345.273438 298.699219 345.585938 299.25 345.957031 C 299.804688 346.324219 300.3125 346.746094 300.785156 347.214844 C 301.253906 347.6875 301.675781 348.195312 302.042969 348.75 C 302.414062 349.300781 302.726562 349.886719 302.980469 350.5 C 303.234375 351.113281 303.425781 351.746094 303.554688 352.398438 C 303.683594 353.050781 303.75 353.710938 303.75 354.375 C 303.75 355.039062 303.683594 355.699219 303.554688 356.351562 C 303.425781 357.003906 303.234375 357.636719 302.980469 358.25 C 302.726562 358.863281 302.414062 359.449219 302.042969 360 C 301.675781 360.554688 301.253906 361.0625 300.785156 361.535156 C 300.3125 362.003906 299.804688 362.425781 299.25 362.792969 C 298.699219 363.164062 298.113281 363.476562 297.5 363.730469 C 296.886719 363.984375 296.253906 364.175781 295.601562 364.304688 C 294.949219 364.433594 294.289062 364.5 293.625 364.5 L 253.125 364.5 C 252.460938 364.5 251.800781 364.433594 251.148438 364.304688 C 250.496094 364.175781 249.863281 363.984375 249.25 363.730469 C 248.636719 363.476562 248.050781 363.164062 247.5 362.792969 C 246.945312 362.425781 246.4375 362.003906 245.964844 361.535156 C 245.496094 361.0625 245.074219 360.554688 244.707031 360 C 244.335938 359.449219 244.023438 358.863281 243.769531 358.25 C 243.515625 357.636719 243.324219 357.003906 243.195312 356.351562 C 243.066406 355.699219 243 355.039062 243 354.375 C 243 353.710938 243.066406 353.050781 243.195312 352.398438 C 243.324219 351.746094 243.515625 351.113281 243.769531 350.5 C 244.023438 349.886719 244.335938 349.300781 244.707031 348.75 C 245.074219 348.195312 245.496094 347.6875 245.964844 347.214844 C 246.4375 346.746094 246.945312 346.324219 247.5 345.957031 C 248.050781 345.585938 248.636719 345.273438 249.25 345.019531 C 249.863281 344.765625 250.496094 344.574219 251.148438 344.445312 C 251.800781 344.316406 252.460938 344.25 253.125 344.25 Z M 263.25 405 L 263.25 394.875 C 263.25 394.210938 263.316406 393.550781 263.445312 392.898438 C 263.574219 392.246094 263.765625 391.613281 264.019531 391 C 264.273438 390.386719 264.585938 389.800781 264.957031 389.25 C 265.324219 388.695312 265.746094 388.1875 266.214844 387.714844 C 266.6875 387.246094 267.195312 386.824219 267.75 386.457031 C 268.300781 386.085938 268.886719 385.773438 269.5 385.519531 C 270.113281 385.265625 270.746094 385.074219 271.398438 384.945312 C 272.050781 384.816406 272.710938 384.75 273.375 384.75 C 274.039062 384.75 274.699219 384.816406 275.351562 384.945312 C 276.003906 385.074219 276.636719 385.265625 277.25 385.519531 C 277.863281 385.773438 278.449219 386.085938 279 386.457031 C 279.554688 386.824219 280.0625 387.246094 280.535156 387.714844 C 281.003906 388.1875 281.425781 388.695312 281.792969 389.25 C 282.164062 389.800781 282.476562 390.386719 282.730469 391 C 282.984375 391.613281 283.175781 392.246094 283.304688 392.898438 C 283.433594 393.550781 283.5 394.210938 283.5 394.875 L 283.5 405 L 293.625 405 C 294.289062 405 294.949219 405.066406 295.601562 405.195312 C 296.253906 405.324219 296.886719 405.515625 297.5 405.769531 C 298.113281 406.023438 298.699219 406.335938 299.25 406.707031 C 299.804688 407.074219 300.3125 407.496094 300.785156 407.964844 C 301.253906 408.4375 301.675781 408.945312 302.042969 409.5 C 302.414062 410.050781 302.726562 410.636719 302.980469 411.25 C 303.234375 411.863281 303.425781 412.496094 303.554688 413.148438 C 303.683594 413.800781 303.75 414.460938 303.75 415.125 C 303.75 415.789062 303.683594 416.449219 303.554688 417.101562 C 303.425781 417.753906 303.234375 418.386719 302.980469 419 C 302.726562 419.613281 302.414062 420.199219 302.042969 420.75 C 301.675781 421.304688 301.253906 421.8125 300.785156 422.285156 C 300.3125 422.753906 299.804688 423.175781 299.25 423.542969 C 298.699219 423.914062 298.113281 424.226562 297.5 424.480469 C 296.886719 424.734375 296.253906 424.925781 295.601562 425.054688 C 294.949219 425.183594 294.289062 425.25 293.625 425.25 L 253.125 425.25 C 252.460938 425.25 251.800781 425.183594 251.148438 425.054688 C 250.496094 424.925781 249.863281 424.734375 249.25 424.480469 C 248.636719 424.226562 248.050781 423.914062 247.5 423.542969 C 246.945312 423.175781 246.4375 422.753906 245.964844 422.285156 C 245.496094 421.8125 245.074219 421.304688 244.707031 420.75 C 244.335938 420.199219 244.023438 419.613281 243.769531 419 C 243.515625 418.386719 243.324219 417.753906 243.195312 417.101562 C 243.066406 416.449219 243 415.789062 243 415.125 C 243 414.460938 243.066406 413.800781 243.195312 413.148438 C 243.324219 412.496094 243.515625 411.863281 243.769531 411.25 C 244.023438 410.636719 244.335938 410.050781 244.707031 409.5 C 245.074219 408.945312 245.496094 408.4375 245.964844 407.964844 C 246.4375 407.496094 246.945312 407.074219 247.5 406.707031 C 248.050781 406.335938 248.636719 406.023438 249.25 405.769531 C 249.863281 405.515625 250.496094 405.324219 251.148438 405.195312 C 251.800781 405.066406 252.460938 405 253.125 405 Z M 263.25 465.75 L 263.25 455.625 C 263.25 454.960938 263.316406 454.300781 263.445312 453.648438 C 263.574219 452.996094 263.765625 452.363281 264.019531 451.75 C 264.273438 451.136719 264.585938 450.550781 264.957031 450 C 265.324219 449.445312 265.746094 448.9375 266.214844 448.464844 C 266.6875 447.996094 267.195312 447.574219 267.75 447.207031 C 268.300781 446.835938 268.886719 446.523438 269.5 446.269531 C 270.113281 446.015625 270.746094 445.824219 271.398438 445.695312 C 272.050781 445.566406 272.710938 445.5 273.375 445.5 C 274.039062 445.5 274.699219 445.566406 275.351562 445.695312 C 276.003906 445.824219 276.636719 446.015625 277.25 446.269531 C 277.863281 446.523438 278.449219 446.835938 279 447.207031 C 279.554688 447.574219 280.0625 447.996094 280.535156 448.464844 C 281.003906 448.9375 281.425781 449.445312 281.792969 450 C 282.164062 450.550781 282.476562 451.136719 282.730469 451.75 C 282.984375 452.363281 283.175781 452.996094 283.304688 453.648438 C 283.433594 454.300781 283.5 454.960938 283.5 455.625 L 283.5 465.75 L 293.625 465.75 C 294.289062 465.75 294.949219 465.816406 295.601562 465.945312 C 296.253906 466.074219 296.886719 466.265625 297.5 466.519531 C 298.113281 466.773438 298.699219 467.085938 299.25 467.457031 C 299.804688 467.824219 300.3125 468.246094 300.785156 468.714844 C 301.253906 469.1875 301.675781 469.695312 302.042969 470.25 C 302.414062 470.800781 302.726562 471.386719 302.980469 472 C 303.234375 472.613281 303.425781 473.246094 303.554688 473.898438 C 303.683594 474.550781 303.75 475.210938 303.75 475.875 C 303.75 476.539062 303.683594 477.199219 303.554688 477.851562 C 303.425781 478.503906 303.234375 479.136719 302.980469 479.75 C 302.726562 480.363281 302.414062 480.949219 302.042969 481.5 C 301.675781 482.054688 301.253906 482.5625 300.785156 483.035156 C 300.3125 483.503906 299.804688 483.925781 299.25 484.292969 C 298.699219 484.664062 298.113281 484.976562 297.5 485.230469 C 296.886719 485.484375 296.253906 485.675781 295.601562 485.804688 C 294.949219 485.933594 294.289062 486 293.625 486 L 253.125 486 C 252.460938 486 251.800781 485.933594 251.148438 485.804688 C 250.496094 485.675781 249.863281 485.484375 249.25 485.230469 C 248.636719 484.976562 248.050781 484.664062 247.5 484.292969 C 246.945312 483.925781 246.4375 483.503906 245.964844 483.035156 C 245.496094 482.5625 245.074219 482.054688 244.707031 481.5 C 244.335938 480.949219 244.023438 480.363281 243.769531 479.75 C 243.515625 479.136719 243.324219 478.503906 243.195312 477.851562 C 243.066406 477.199219 243 476.539062 243 475.875 C 243 475.210938 243.066406 474.550781 243.195312 473.898438 C 243.324219 473.246094 243.515625 472.613281 243.769531 472 C 244.023438 471.386719 244.335938 470.800781 244.707031 470.25 C 245.074219 469.695312 245.496094 469.1875 245.964844 468.714844 C 246.4375 468.246094 246.945312 467.824219 247.5 467.457031 C 248.050781 467.085938 248.636719 466.773438 249.25 466.519531 C 249.863281 466.265625 250.496094 466.074219 251.148438 465.945312 C 251.800781 465.816406 252.460938 465.75 253.125 465.75 Z M 263.25 465.75 " fill-opacity="1" fill-rule="nonzero"/></svg>